<svg xmlns="http://www.w3.org/2000/svg" width="133" height="88" viewBox="0 0 133 88">
    <g fill="none" fill-rule="evenodd">
        <path fill="#334151" d="M5.16 87.57l-3.067-3.8H2.07v3.8H.112v-8.252H2.07v3.357h.035l2.95-3.357h2.494l-3.555 3.8 3.765 4.451h-2.6zm8.538 0v-8.252h2.005v8.251h-2.005zm12.538-6.55v6.55h-1.993v-6.55H21.91v-1.702h6.656v1.702h-2.331zm15.452 5.407c-.366.42-.816.752-1.352.997-.537.245-1.155.367-1.854.367a4.837 4.837 0 0 1-1.766-.315 4.149 4.149 0 0 1-1.405-.891 4.129 4.129 0 0 1-.932-1.381 4.526 4.526 0 0 1-.338-1.772c0-.66.114-1.258.344-1.795.229-.536.546-.992.95-1.369a4.208 4.208 0 0 1 1.422-.868 5.017 5.017 0 0 1 1.76-.303c.583 0 1.156.103 1.72.309.563.206 1.02.507 1.37.903l-1.353 1.352a1.674 1.674 0 0 0-.734-.571 2.436 2.436 0 0 0-.933-.187c-.35 0-.67.064-.962.193a2.256 2.256 0 0 0-.752.53c-.21.225-.373.491-.49.798a2.817 2.817 0 0 0-.174 1.008c0 .373.058.715.175 1.026.116.31.278.577.484.798.206.222.452.394.74.519.287.124.602.186.944.186.396 0 .742-.077 1.037-.233.296-.155.533-.357.712-.606l1.387 1.305zm11.36 1.142v-3.45H49.83v3.45h-1.994v-8.25h1.994v3.123h3.217v-3.124h1.993v8.251h-1.993zm8.994 0v-8.25h5.548v1.69h-3.625v1.55h3.427v1.596h-3.427v1.713H67.8v1.701h-5.758zm17.62 0l-3.323-5.395h-.035l.047 5.395h-1.935v-8.25h2.273L80 84.702h.036l-.047-5.385h1.935v8.251h-2.261zm13.621-6.106a1.8 1.8 0 0 0-.67-.519 1.891 1.891 0 0 0-1.2-.157 1.038 1.038 0 0 0-.368.134.908.908 0 0 0-.274.256.683.683 0 0 0-.11.402c0 .14.029.257.087.35a.778.778 0 0 0 .256.245c.113.07.247.134.403.192.155.058.33.118.524.18.28.094.571.197.874.31.303.112.58.262.828.448.249.187.455.418.618.693.163.276.245.62.245 1.032 0 .474-.088.884-.263 1.23-.175.345-.41.63-.705.856a3.022 3.022 0 0 1-1.014.501c-.38.109-.773.163-1.177.163-.591 0-1.162-.103-1.714-.309a3.63 3.63 0 0 1-1.376-.88l1.306-1.328c.202.249.468.456.799.623.33.167.658.251.985.251.147 0 .291-.016.43-.047.14-.03.263-.081.368-.151a.759.759 0 0 0 .25-.28.88.88 0 0 0 .094-.42.664.664 0 0 0-.117-.396 1.139 1.139 0 0 0-.332-.297 2.676 2.676 0 0 0-.536-.245 27.558 27.558 0 0 0-.729-.238 6.964 6.964 0 0 1-.775-.303 2.595 2.595 0 0 1-.676-.45 2.078 2.078 0 0 1-.478-.663c-.12-.26-.18-.577-.18-.95 0-.459.093-.851.28-1.177.186-.327.43-.595.734-.804.303-.21.645-.364 1.025-.46.381-.098.766-.146 1.154-.146.467 0 .943.085 1.428.256.486.17.912.423 1.277.757l-1.27 1.34zm7.828 6.106v-8.25h2.005v8.25h-2.005zm14.251 0l-3.322-5.395h-.035l.047 5.395h-1.935v-8.25h2.273l3.31 5.384h.036l-.047-5.385h1.935v8.251h-2.262zm14.31 0l-3.066-3.799h-.023v3.8h-1.959v-8.252h1.959v3.357h.035l2.949-3.357h2.495l-3.556 3.8 3.765 4.451h-2.6z"/>
        <g fill="#334456" fill-rule="nonzero">
            <path d="M99 13H43V7.04C43 4.998 44.972 3 47 3s4 1.998 4 4.04V9h3V7.04C54 3.184 50.83 0 47 0s-7 3.184-7 7.04V13h-8v44h67V13zm-64 3h32v31H35V16zm61 38H35v-4h61v4zm0-7H70v-9h26v9zm0-11H70v-9h26v9zm0-11H70v-9h26v9z"/>
            <path d="M80 19h5v3h-5zM38 19h5v3h-5zM80 30h5v3h-5zM80 41h5v3h-5z"/>
        </g>
    </g>
</svg>
