<?xml version="1.0" encoding="UTF-8"?>
<svg width="16px" height="16px" viewBox="0 0 16 16" version="1.1" xmlns="http://www.w3.org/2000/svg" xmlns:xlink="http://www.w3.org/1999/xlink">
    <!-- Generator: Sketch 64 (93537) - https://sketch.com -->
    <desc>Created with Sketch.</desc>
    <g id="Iconsheet" stroke="none" stroke-width="1" fill="none" fill-rule="evenodd">
        <g id="Iconfont" transform="translate(-981.000000, -991.000000)">
            <g id="Icon/checkboxBlankHover" transform="translate(981.000000, 991.000000)">
                <g id="checkboxBlank">
                    <rect id="Rectangle-4" x="0" y="0" width="16" height="16"></rect>
                    <path d="M4,3 C3.44771525,3 3,3.44771525 3,4 L3,12 C3,12.5522847 3.44771525,13 4,13 L12,13 C12.5522847,13 13,12.5522847 13,12 L13,4 C13,3.44771525 12.5522847,3 12,3 L4,3 Z M12,2 C13.1045695,2 14,2.8954305 14,4 L14,12 C14,13.1045695 13.1045695,14 12,14 L4,14 C2.8954305,14 2,13.1045695 2,12 L2,4 C2,2.8954305 2.8954305,2 4,2 L12,2 Z" id="Combined-Shape" fill="#1D273B"></path>
                    <rect id="Rectangle-2" fill="#F0F2F5" x="3" y="3" width="10" height="10" rx="1"></rect>
                </g>
            </g>
        </g>
    </g>
</svg>