<svg xmlns="http://www.w3.org/2000/svg" width="648" height="272" viewBox="0 0 648 272">
    <g fill="none" fill-rule="nonzero">
        <g transform="translate(589 98)">
            <path fill="#F2F4F5" d="M36.63 9.332a22.85 22.85 0 0 1-18.902 38.86 18.756 18.756 0 0 0 13.59 3.986v1.005A22.886 22.886 0 0 0 36.63 9.332z"/>
            <path fill="#E0E2E5" d="M53.45 0a5.09 5.09 0 1 0 0 10.181A5.09 5.09 0 0 0 53.45 0zm0 7.636a2.545 2.545 0 1 1 0-5.09 2.545 2.545 0 0 1 0 5.09z"/>
            <circle cx="1.273" cy="52.178" r="1.273" fill="#E0E2E5"/>
            <path fill="#E0E2E5" d="M52.178 30.543a22.846 22.846 0 0 0-31.54-21.188C14.551 5.037 9.09 2.545 5.31 2.545a5.253 5.253 0 0 0-3.734 1.277C-1.848 7.052.512 15.781 6.834 26.055a22.367 22.367 0 0 0-.47 4.488c0 12.652 10.255 22.908 22.907 22.908.522 0 1.03-.055 1.542-.091 7.879 6.454 15.17 10.272 19.873 10.272a5.252 5.252 0 0 0 3.734-1.278c3.333-3.143 1.161-11.487-4.77-21.39a22.713 22.713 0 0 0 2.528-10.42zm-43.27 0c0-.39.054-.766.077-1.15A114.492 114.492 0 0 0 18.76 41.8a116.751 116.751 0 0 0 9.077 9.032c-10.652-.756-18.912-9.61-18.93-20.289zm43.766 29.96a2.845 2.845 0 0 1-1.988.583c-3.423 0-9.389-2.79-16.4-8.207l.036-.006a87.987 87.987 0 0 1-2.633-2.125l-.042.003a110.201 110.201 0 0 1-10.995-10.656A107.467 107.467 0 0 1 9.543 25.603l.01-.051a79.887 79.887 0 0 1-1.76-2.915l-.014.047C2.78 13.962 1.425 7.464 3.322 5.674a2.848 2.848 0 0 1 1.99-.583c2.802 0 7.318 1.887 12.708 5.538a22.99 22.99 0 0 0-8.933 9.08c.466.872.962 1.769 1.522 2.712 4.429-10.33 16.393-15.115 26.724-10.686 10.33 4.429 15.115 16.393 10.686 26.724a102.053 102.053 0 0 1-13.063-12.224 1.273 1.273 0 1 0-1.891 1.702 104.205 104.205 0 0 0 13.781 12.838 20.485 20.485 0 0 1-5.28 5.953A118.386 118.386 0 0 1 27.32 33.87a108.91 108.91 0 0 1-7.414-9.163 1.273 1.273 0 0 0-2.066 1.489c2.36 3.26 4.892 6.39 7.589 9.377a118.838 118.838 0 0 0 13.909 12.642 20.294 20.294 0 0 1-4.409 1.872c.83.66 1.644 1.284 2.435 1.863a22.826 22.826 0 0 0 4.513-2.383c.287-.054.545-.208.729-.435.017-.023.02-.051.035-.074a22.984 22.984 0 0 0 5.514-5.6c4.995 8.72 6.415 15.254 4.519 17.044z"/>
            <circle cx="24.18" cy="3.818" r="1.273" fill="#E0E2E5"/>
        </g>
        <path fill="#F2F4F5" d="M46.653 195.834c16.535 8.066 24.555 27.116 18.769 44.58-5.786 17.463-23.596 27.955-41.675 24.552a36.768 36.768 0 1 0 22.906-69.132z"/>
        <path fill="#E0E2E5" d="M40 192c-22.091 0-40 17.909-40 40s17.909 40 40 40 40-17.909 40-40a40 40 0 0 0-40-40zm36.8 40a36.82 36.82 0 0 1-.74 7.344A170.861 170.861 0 0 1 39.6 243.2c-2.688 0-5.33-.1-7.961-.216a4.78 4.78 0 0 0-8.552-.623 164.23 164.23 0 0 1-19.104-2.822 35.628 35.628 0 0 1-.212-13.783A133.224 133.224 0 0 0 39.6 230.4a132.218 132.218 0 0 0 36.592-4.88c.394 2.138.597 4.306.608 6.48zm-37.2 27.2a180.775 180.775 0 0 1-26.288-1.936 36.793 36.793 0 0 1-8.41-14.211 167.712 167.712 0 0 0 17.574 2.496 4.775 4.775 0 0 0 9.292.653c2.586.107 5.184.198 7.832.198a175.85 175.85 0 0 0 35.562-3.54 36.783 36.783 0 0 1-8.348 14.264A180.477 180.477 0 0 1 39.6 259.2zm-14-14.4a1.6 1.6 0 1 1 3.2 0 1.6 1.6 0 0 1-3.2 0zm9.748-33.733a7.97 7.97 0 0 0 15.756-.507 78.745 78.745 0 0 0 16.032-3.331 36.718 36.718 0 0 1 8.364 15.225 128.09 128.09 0 0 1-35.9 4.746 129.228 129.228 0 0 1-35.16-4.514 36.71 36.71 0 0 1 8.408-15.439 84.789 84.789 0 0 0 22.5 3.82zM38.4 209.6a4.8 4.8 0 1 1 9.6 0 4.8 4.8 0 0 1-9.6 0zm26.156-4.93a78.486 78.486 0 0 1-13.712 2.695 7.968 7.968 0 0 0-15.436.478 83.566 83.566 0 0 1-19.95-3.187c13.939-12.613 35.168-12.607 49.098.014zm-46.992 56.433c7.314.86 14.672 1.293 22.036 1.297a189.12 189.12 0 0 0 22.996-1.416c-13.203 10.377-31.775 10.426-45.032.12z"/>
        <g transform="translate(284 4)">
            <path fill="#F2F4F5" d="M32.657 2.684C44.231 8.33 49.846 21.665 45.795 33.89c-4.05 12.224-16.517 19.569-29.172 17.186A25.738 25.738 0 1 0 32.657 2.684z"/>
            <path fill="#E0E2E5" d="M28 0C12.536 0 0 12.536 0 28s12.536 28 28 28 28-12.536 28-28A28 28 0 0 0 28 0zm0 53.76C14.223 53.738 2.9 42.884 2.297 29.12h11.255a7.803 7.803 0 0 0 15.456 0h3.472a1.12 1.12 0 0 0 0-2.24h-3.472a7.803 7.803 0 0 0-15.456 0H2.297c.09-2.282.484-4.542 1.172-6.72h8.315a12.304 12.304 0 0 1 18.992 0H41.44a1.12 1.12 0 0 0 0-2.24h-9.705a14.44 14.44 0 0 0-20.91 0H4.298a25.847 25.847 0 0 1 6.412-8.96h12.898a1.12 1.12 0 0 0 0-2.24h-10.1a25.715 25.715 0 0 1 40.195 20.16H41.44a1.12 1.12 0 0 0 0 2.24h12.263a25.59 25.59 0 0 1-4.474 13.44H36.96a1.12 1.12 0 0 0 0 2.24h10.525A25.69 25.69 0 0 1 28 53.76zM21.28 22.4a5.6 5.6 0 1 1-5.6 5.6 5.606 5.606 0 0 1 5.6-5.6z"/>
            <path fill="#E0E2E5" d="M30.24 47.04h-4.48a1.12 1.12 0 0 0 0 2.24h4.48a1.12 1.12 0 0 0 0-2.24zM39.2 11.2h-4.48a1.12 1.12 0 0 0 0 2.24h4.48a1.12 1.12 0 0 0 0-2.24z"/>
            <circle cx="36.96" cy="28" r="1.12" fill="#E0E2E5"/>
            <circle cx="43.68" cy="36.96" r="1.12" fill="#E0E2E5"/>
            <circle cx="28" cy="7.84" r="1.12" fill="#E0E2E5"/>
            <circle cx="45.92" cy="19.04" r="1.12" fill="#E0E2E5"/>
            <circle cx="21.28" cy="48.16" r="1.12" fill="#E0E2E5"/>
            <path fill="#E0E2E5" d="M31.735 38.08h5.225a1.12 1.12 0 0 0 0-2.24h-6.184a12.304 12.304 0 0 1-18.992 0h-2.76a14.493 14.493 0 0 0 22.711 2.24z"/>
        </g>
        <path fill="#E0E2E5" d="M432 248a5 5 0 1 0 0 10 5 5 0 0 0 0-10zm0 7.5a2.5 2.5 0 1 1 0-5 2.5 2.5 0 0 1 0 5zM221 158a5 5 0 1 0 0 10 5 5 0 0 0 0-10zm0 7.5a2.5 2.5 0 1 1 0-5 2.5 2.5 0 0 1 0 5zM477 0a5 5 0 1 0 0 10 5 5 0 0 0 0-10zm0 7.5a2.5 2.5 0 1 1 0-5 2.5 2.5 0 0 1 0 5zM35 54a5 5 0 1 0 0 10 5 5 0 0 0 0-10zm0 7.5a2.5 2.5 0 1 1 0-5 2.5 2.5 0 0 1 0 5z"/>
        <circle cx="400.311" cy="50.652" r="1" fill="#E0E2E5"/>
        <circle cx="184" cy="216" r="1" fill="#E0E2E5"/>
        <circle cx="272.829" cy="101.896" r="1" fill="#E0E2E5"/>
        <circle cx="424.829" cy="141.896" r="1" fill="#E0E2E5"/>
        <circle cx="160.982" cy="52.343" r="1" fill="#E0E2E5"/>
        <circle cx="50.577" cy="102.759" r="1" fill="#E0E2E5"/>
    </g>
</svg>
