<svg width="40" height="40" viewBox="0 0 40 40" fill="none" xmlns="http://www.w3.org/2000/svg">
<path d="M21.12 6.31995L21.106 6.32095C21.9338 7.40463 22.0747 8.86427 21.4694 10.0863C20.8641 11.3083 19.6177 12.0807 18.254 12.0789C19.2713 13.4285 21.0914 13.8873 22.6269 13.1811C24.1623 12.4749 24.9986 10.7945 24.6361 9.14378C24.2735 7.49304 22.8101 6.31773 21.12 6.31995Z" fill="#FFE3B9"/>
<path d="M34.738 36.988L24.418 13.704C25.9113 12.4217 26.514 10.3829 25.9578 8.49475C25.4016 6.60662 23.79 5.22006 21.84 4.952V2.72C21.84 2.32235 21.5176 2 21.12 2C20.7224 2 20.4 2.32235 20.4 2.72V4.952C18.4509 5.22074 16.8404 6.60689 16.2843 8.49418C15.7283 10.3815 16.33 12.4194 17.822 13.702L12.314 26.132C9.22507 23.5391 7.44085 19.7129 7.44 15.68C7.44 15.2824 7.11765 14.96 6.72 14.96C6.32236 14.96 6 15.2824 6 15.68C6.00198 20.2827 8.10453 24.6329 11.71 27.494L7.502 36.988C7.34073 37.3514 7.5046 37.7767 7.868 37.938C8.2314 38.0993 8.65673 37.9354 8.818 37.572L12.903 28.355C17.8725 31.5978 24.284 31.6162 29.272 28.402C29.2931 28.3842 29.3132 28.3652 29.332 28.345L33.422 37.572C33.5877 37.9278 34.0079 38.0853 34.3667 37.9261C34.7255 37.7669 34.8907 37.3496 34.738 36.988ZM17.52 9.92C17.52 8.63384 18.2062 7.44539 19.32 6.80231C20.4338 6.15923 21.8062 6.15923 22.92 6.80231C24.0338 7.44539 24.72 8.63384 24.72 9.92C24.72 11.9082 23.1082 13.52 21.12 13.52C19.1318 13.52 17.52 11.9082 17.52 9.92ZM28.493 27.19C23.9101 30.141 18.0099 30.078 13.491 27.03L19.044 14.5C20.3606 15.1107 21.8794 15.1107 23.196 14.5L28.774 27.085C28.674 27.0994 28.5783 27.1349 28.493 27.189V27.19Z" fill="#334151"/>
</svg>
