<svg width="40" height="40" viewBox="0 0 40 40" fill="none" xmlns="http://www.w3.org/2000/svg">
<g clip-path="url(#clip0)">
<path d="M20 4L0 12.6815L9.57026 16.5155L0 20.6703L9.57026 24.5044L0 28.6592L20 36.6727L40 28.6592L30.4291 24.505L40 20.6703L30.4291 16.5161L40 12.6815L20 4ZM36.8087 28.6137L20 35.349L3.19131 28.6137L11.1757 25.1478L20 28.6838L28.8243 25.1484L36.8087 28.6137ZM36.8087 20.6249L28.8433 23.8167L28.8322 23.8118L28.8273 23.8229L20 27.3601L11.1721 23.8229L11.1671 23.8112L11.1555 23.8161L3.19131 20.6249L11.1757 17.1589L20 20.6949L28.8243 17.1595L36.8087 20.6249ZM28.8322 15.8229L28.8273 15.834L20 19.3712L11.1721 15.834L11.1671 15.8223L11.1555 15.8272L3.19131 12.636L20 5.33967L36.8087 12.636L28.8433 15.8278L28.8322 15.8229Z" fill="#334151"/>
<path d="M36.8087 20.6249L28.8433 23.8168L28.8322 23.8118L28.8273 23.8229L20 27.3601L11.172 23.8229L11.1671 23.8112L11.1555 23.8161L3.19131 20.6249L11.1757 17.1589L20 20.6949L28.8243 17.1596L36.8087 20.6249Z" fill="#FFE3B9"/>
</g>
<defs>
<clipPath id="clip0">
<rect width="40" height="32.6727" fill="white" transform="translate(0 4)"/>
</clipPath>
</defs>
</svg>
