<svg width="40" height="40" viewBox="0 0 40 40" fill="none" xmlns="http://www.w3.org/2000/svg">
<path d="M23.3267 1.91663C31.5933 5.94996 35.6045 15.4755 32.7111 24.2066C29.8178 32.9388 20.9133 38.1844 11.8733 36.4833C18.3109 39.6636 26.0108 38.8051 31.5898 34.2849C37.1687 29.7648 39.6055 22.4103 37.8295 15.4532C36.0534 8.49603 30.3896 3.20953 23.3267 1.91663Z" fill="#FFE3B9"/>
<path d="M20 0C8.95445 0 0 8.95445 0 20C0 31.0456 8.95445 40 20 40C31.0456 40 40 31.0456 40 20C40 8.95431 31.0457 0 20 0ZM30.2667 4.73778C28.8833 6.79444 29.8867 10.2178 31.4344 11.7656C32.0178 12.3489 32.0122 15.4167 31.1311 18.3511C30.644 19.8751 29.1904 20.8789 27.5927 20.7946C25.995 20.7103 24.6551 19.559 24.3311 17.9922C24.1178 16.9122 22.9733 11.4422 21.3644 9.83444C20.2811 8.75111 18.6611 9.25111 17.0933 9.73445C15.3267 10.2811 14.1133 10.5811 13.3656 9.83444C11.7633 8.23333 11.9078 5.24111 11.9789 3.80222C11.9856 3.66111 11.9867 3.57111 11.99 3.45889C17.8714 0.580745 24.843 1.06815 30.2667 4.73667V4.73778ZM1.6 20C1.60769 13.6216 4.92049 7.70293 10.3533 4.36111C10.2911 6.16556 10.3689 9.1 12.2344 10.9656C13.7178 12.4489 15.85 11.7911 17.5644 11.2633C18.6789 10.9189 19.8311 10.5633 20.2344 10.9656C21.5537 13.2195 22.4125 15.7129 22.7611 18.3011C23.2279 20.5883 25.1826 22.2702 27.5138 22.3905C29.845 22.5109 31.9624 21.0392 32.6622 18.8122C33.4133 16.3144 34.0067 12.0756 32.5656 10.6344C31.8776 9.86367 31.4256 8.91144 31.2633 7.89111C31.0934 7.14747 31.191 6.36775 31.5389 5.68889C38.7133 11.4367 40.5122 21.6133 35.7444 29.4722C35.3143 27.2818 33.4309 25.677 31.2 25.6C29.3356 25.6 27.9189 27.6011 26.5467 29.5378C25.4644 31.0667 24.2356 32.8 23.2 32.8C21.6689 32.8 19.7989 31.1 19.1856 27.8511C18.3244 23.2822 16.1356 21.6589 11.86 22.4122C8.01556 23.0944 6.76111 29.5078 6.47444 32.4322C3.34234 29.0497 1.60162 24.61 1.6 20ZM20 38.4C15.5667 38.4 11.2822 36.7889 7.94556 33.8689C7.97929 33.7831 7.99772 33.6921 8 33.6C8 31.1556 9.27222 24.4956 12.14 23.9878C15.5278 23.3844 16.9144 24.4356 17.6144 28.1489C18.3067 31.8289 20.6044 34.4 23.2 34.4C25.0644 34.4 26.4811 32.3989 27.8533 30.4622C28.9356 28.9333 30.1644 27.2 31.2 27.2C33.8567 27.2 34.4 30.3556 34.4 31.2C34.405 31.2593 34.417 31.3179 34.4356 31.3744C30.9566 35.8072 25.6349 38.3972 20 38.4Z" fill="#334151"/>
</svg>
