<svg width="40" height="40" viewBox="0 0 40 40" fill="none" xmlns="http://www.w3.org/2000/svg">
<path d="M3.6714 28H6.72855C6.768 28 6.79998 28.032 6.79998 28.0714V38.3286C6.79998 38.368 6.768 38.4 6.72855 38.4H3.6714C3.63196 38.4 3.59998 38.368 3.59998 38.3286V28.0714C3.59998 28.032 3.63196 28 3.6714 28Z" fill="#FFE3B9"/>
<path d="M30.8 11.2V37.6C30.8 38.0418 30.4418 38.4 30 38.4H28.4C27.9584 38.3994 27.6006 38.0415 27.6 37.6V11.2H21.9178L29.1956 1.59998H29.1989L36.4822 11.2H30.8Z" fill="#FFE3B9"/>
<path d="M6 26.4H4.4C3.07452 26.4 2 27.4745 2 28.8V37.6C2 38.9255 3.07452 40 4.4 40H6C7.32548 40 8.4 38.9255 8.4 37.6V28.8C8.4 27.4745 7.32548 26.4 6 26.4ZM6.8 37.6C6.8 38.0418 6.44183 38.4 6 38.4H4.4C3.95843 38.3994 3.60061 38.0416 3.6 37.6V28.8C3.6 28.3589 3.95889 28 4.4 28H6C6.44183 28 6.8 28.3582 6.8 28.8V37.6ZM17.2 17.6H15.6C14.2745 17.6 13.2 18.6745 13.2 20V37.6C13.2 38.9255 14.2745 40 15.6 40H17.2C18.5255 40 19.6 38.9255 19.6 37.6V20C19.6 18.6745 18.5255 17.6 17.2 17.6ZM18 37.6C18 38.0418 17.6418 38.4 17.2 38.4H15.6C15.1584 38.3994 14.8006 38.0416 14.8 37.6V20C14.8 19.5589 15.1589 19.2 15.6 19.2H17.2C17.6418 19.2 18 19.5582 18 20V37.6ZM38.6589 11.5489L30.48 0.64C30.1778 0.237111 29.7036 0 29.2 0C28.6964 0 28.2222 0.237111 27.92 0.64L19.7422 11.5489C19.5751 11.7936 19.557 12.1106 19.6951 12.3728C19.8331 12.635 20.1048 12.7993 20.4011 12.8H26V37.6C26 38.2365 26.2529 38.847 26.7029 39.2971C27.153 39.7471 27.7635 40 28.4 40H30C31.3255 40 32.4 38.9255 32.4 37.6V12.8H37.9989C38.2954 12.7997 38.5674 12.6355 38.7058 12.3733C38.8441 12.111 38.8261 11.7938 38.6589 11.5489ZM30.8 11.2V37.6C30.8 38.0418 30.4418 38.4 30 38.4H28.4C27.9584 38.3994 27.6006 38.0416 27.6 37.6V11.2H21.9178L29.1956 1.6H29.1989L36.4822 11.2H30.8Z" fill="#334151"/>
</svg>
