<?xml version="1.0" encoding="UTF-8"?>
<svg width="78px" height="103px" viewBox="0 0 78 103" version="1.1" xmlns="http://www.w3.org/2000/svg" xmlns:xlink="http://www.w3.org/1999/xlink">
    <!-- Generator: Sketch 52.4 (67378) - http://www.bohemiancoding.com/sketch -->
    <title>pyrene_logo</title>
    <desc>Created with Sketch.</desc>
    <defs>
        <linearGradient x1="6.72754446%" y1="20.1185555%" x2="89.3408934%" y2="74.285568%" id="linearGradient-1">
            <stop stop-color="#00FFB3" stop-opacity="0.6" offset="0%"></stop>
            <stop stop-color="#0055FF" offset="100%"></stop>
        </linearGradient>
        <linearGradient x1="-40.3063611%" y1="50%" x2="123.989898%" y2="50%" id="linearGradient-2">
            <stop stop-color="#008EFF" stop-opacity="0.5" offset="0%"></stop>
            <stop stop-color="#0055FF" offset="100%"></stop>
        </linearGradient>
        <linearGradient x1="0%" y1="50%" x2="100%" y2="50%" id="linearGradient-3">
            <stop stop-color="#0055FF" offset="0%"></stop>
            <stop stop-color="#00F4FF" stop-opacity="0.5" offset="100%"></stop>
        </linearGradient>
        <linearGradient x1="0%" y1="50%" x2="100%" y2="50%" id="linearGradient-4">
            <stop stop-color="#00FFB3" stop-opacity="0.5" offset="0%"></stop>
            <stop stop-color="#0055FF" stop-opacity="0.8" offset="100%"></stop>
        </linearGradient>
        <linearGradient x1="0%" y1="50%" x2="100%" y2="50%" id="linearGradient-5">
            <stop stop-color="#00FFB3" stop-opacity="0.5" offset="0%"></stop>
            <stop stop-color="#0055FF" stop-opacity="0.5" offset="100%"></stop>
        </linearGradient>
    </defs>
    <g id="Page-1" stroke="none" stroke-width="1" fill="none" fill-rule="evenodd">
        <g id="Kitchensink---Colors-New" transform="translate(-104.000000, -49.000000)">
            <g id="Group-8-Copy">
                <g id="pyrene_logo" transform="translate(94.000000, 41.000000)">
                    <path d="M80.5804802,14.4772963 C80.3380047,14.0557658 79.8909829,13.7974085 79.4073865,13.7974085 L62.0588741,13.7974085 C61.5752777,13.7974085 61.1269012,14.0557658 60.8857804,14.4772963 L52.2135561,29.5572078 C51.9724352,29.9787382 51.9724352,30.4954529 52.2135561,30.9169834 L60.8844257,45.9982546 C61.1269012,46.4197851 61.5739231,46.6781424 62.0575195,46.6781424 L79.4060319,46.6781424 C79.8896283,46.6781424 80.3380047,46.4197851 80.5791256,45.9982546 L89.2540591,30.9169834 C89.4965346,30.4954529 89.4965346,29.9787382 89.2540591,29.5572078 L80.5804802,14.4772963 Z" id="Shape-Copy-6" fill="url(#linearGradient-1)" transform="translate(70.734316, 30.237775) rotate(-30.000000) translate(-70.734316, -30.237775) "></path>
                    <path d="M68.0956626,13.9477927 C67.6682522,13.2068212 66.8802888,12.7526774 66.0278557,12.7526774 L35.4477143,12.7526774 C34.5952812,12.7526774 33.8049301,13.2068212 33.3799074,13.9477927 L18.0934183,40.4554496 C17.6683957,41.1964211 17.6683957,42.1047087 18.0934183,42.8456802 L33.3775196,69.3557273 C33.8049301,70.0966988 34.5928934,70.5508426 35.4453265,70.5508426 L66.025468,70.5508426 C66.877901,70.5508426 67.6682522,70.0966988 68.0932748,69.3557273 L83.3845394,42.8456802 C83.8119499,42.1047087 83.8119499,41.1964211 83.3845394,40.4554496 L68.0956626,13.9477927 Z" id="Shape" fill="url(#linearGradient-2)" transform="translate(50.739874, 41.651760) rotate(-30.000000) translate(-50.739874, -41.651760) "></path>
                    <path d="M43.6609534,33.1424919 C43.357859,32.6155789 42.7990817,32.2926322 42.1945862,32.2926322 L20.5089457,32.2926322 C19.9044503,32.2926322 19.3439797,32.6155789 19.0425785,33.1424919 L8.20229821,51.9923813 C7.9008971,52.5192943 7.9008971,53.1651877 8.20229821,53.6921008 L19.0408853,72.5436898 C19.3439797,73.0706029 19.902757,73.3935496 20.5072525,73.3935496 L42.192893,73.3935496 C42.7973884,73.3935496 43.357859,73.0706029 43.6592601,72.5436898 L54.502927,53.6921008 C54.8060214,53.1651877 54.8060214,52.5192943 54.502927,51.9923813 L43.6609534,33.1424919 Z" id="Shape-Copy-4" fill="url(#linearGradient-3)" transform="translate(31.353248, 52.843091) rotate(-30.000000) translate(-31.353248, -52.843091) "></path>
                    <path d="M59.995555,26.829346 C59.7682343,26.4341612 59.3491513,26.1919512 58.8957796,26.1919512 L42.6315493,26.1919512 C42.1781777,26.1919512 41.7578247,26.4341612 41.5317739,26.829346 L33.4015636,40.966763 C33.1755128,41.3619478 33.1755128,41.8463678 33.4015636,42.2415526 L41.5305039,56.3802444 C41.7578247,56.7754292 42.1769077,57.0176393 42.6302793,57.0176393 L58.8945097,57.0176393 C59.3478813,57.0176393 59.7682343,56.7754292 59.9942851,56.3802444 L68.1270352,42.2415526 C68.354356,41.8463678 68.354356,41.3619478 68.1270352,40.966763 L59.995555,26.829346 Z" id="Shape-Copy-3" fill="url(#linearGradient-4)" opacity="0.8" transform="translate(50.764776, 41.604795) rotate(-30.000000) translate(-50.764776, -41.604795) "></path>
                    <path d="M59.995555,26.829346 C59.7682343,26.4341612 59.3491513,26.1919512 58.8957796,26.1919512 L42.6315493,26.1919512 C42.1781777,26.1919512 41.7578247,26.4341612 41.5317739,26.829346 L33.4015636,40.966763 C33.1755128,41.3619478 33.1755128,41.8463678 33.4015636,42.2415526 L41.5305039,56.3802444 C41.7578247,56.7754292 42.1769077,57.0176393 42.6302793,57.0176393 L58.8945097,57.0176393 C59.3478813,57.0176393 59.7682343,56.7754292 59.9942851,56.3802444 L68.1270352,42.2415526 C68.354356,41.8463678 68.354356,41.3619478 68.1270352,40.966763 L59.995555,26.829346 Z" id="Shape-Copy-5" fill="url(#linearGradient-5)" transform="translate(50.764776, 41.604795) rotate(-30.000000) translate(-50.764776, -41.604795) "></path>
                    <path d="M12.3302752,110.091743 L12.3302752,94.4807339 L15.3152803,94.4807339 L15.3152803,95.7137615 C15.8164125,95.0091743 16.9711955,94.2385321 18.4745922,94.2385321 C21.3724439,94.2385321 23.5948564,96.8587156 23.5948564,99.9853211 C23.5948564,103.111927 21.3724439,105.73211 18.4745922,105.73211 C16.9711955,105.73211 15.8164125,104.961468 15.3152803,104.256881 L15.3152803,110.091743 L12.3302752,110.091743 Z M20.5662746,99.9853211 C20.5662746,98.2678899 19.4550683,96.9908257 17.8209415,96.9908257 C16.1868146,96.9908257 15.0756084,98.2678899 15.0756084,99.9853211 C15.0756084,101.702752 16.1868146,102.979817 17.8209415,102.979817 C19.4550683,102.979817 20.5662746,101.702752 20.5662746,99.9853211 Z M29.9280058,110.091743 L26.6815405,110.091743 L28.9693181,104.873394 L24.3937629,94.4807339 L27.6620166,94.4807339 L30.5816566,101.614679 L33.4795082,94.4807339 L36.7695503,94.4807339 L29.9280058,110.091743 Z M38.5707212,105.489908 L38.5707212,94.4807339 L41.5557263,94.4807339 L41.5557263,96.2422018 C41.9261284,95.1633028 43.0373346,94.3486239 44.2574827,94.3486239 C44.5625197,94.3486239 44.8893451,94.3706422 45.2597472,94.4807339 L45.2597472,97.5412844 C44.8021916,97.387156 44.3882128,97.2990826 43.908869,97.2990826 C42.4926257,97.2990826 41.5557263,98.4220183 41.5557263,100.227523 L41.5557263,105.489908 L38.5707212,105.489908 Z M57.7372136,101.900917 C57.0835628,104.124771 54.9265154,105.73211 52.1593939,105.73211 C48.8257751,105.73211 46.4508441,103.310092 46.4508441,99.9633028 C46.4508441,96.6825688 48.8693518,94.2385321 52.1811823,94.2385321 C55.3840709,94.2385321 58.0204622,96.5504587 57.8679437,100.689908 L49.3704841,100.689908 C49.5012142,101.988991 50.459902,103.111927 52.3119124,103.111927 C53.3577536,103.111927 54.2728646,102.649541 54.6214784,101.900917 L57.7372136,101.900917 Z M52.0940288,96.6825688 C50.7213623,96.6825688 49.7626745,97.4972477 49.4794259,98.7082569 L54.59969,98.7082569 C54.2292879,97.2330275 53.1180817,96.6825688 52.0940288,96.6825688 Z M60.4099188,105.489908 L60.4099188,94.4807339 L63.3949239,94.4807339 L63.3949239,95.7357798 C63.9614212,94.8550459 65.0944158,94.2385321 66.5106591,94.2385321 C69.1470505,94.2385321 70.7158122,96.1761468 70.7158122,99.0385321 L70.7158122,105.489908 L67.7308072,105.489908 L67.7308072,99.5449541 C67.7308072,97.959633 67.0553681,96.9908257 65.8134317,96.9908257 C64.4407651,96.9908257 63.3949239,98.0036697 63.3949239,100.117431 L63.3949239,105.489908 L60.4099188,105.489908 Z M84.4134267,101.900917 C83.759776,104.124771 81.6027285,105.73211 78.835607,105.73211 C75.5019883,105.73211 73.1270572,103.310092 73.1270572,99.9633028 C73.1270572,96.6825688 75.545565,94.2385321 78.8573954,94.2385321 C82.0602841,94.2385321 84.6966754,96.5504587 84.5441569,100.689908 L76.0466972,100.689908 C76.1774274,101.988991 77.1361151,103.111927 78.9881256,103.111927 C80.0339667,103.111927 80.9490778,102.649541 81.2976915,101.900917 L84.4134267,101.900917 Z M78.770242,96.6825688 C77.3975754,96.6825688 76.4388877,97.4972477 76.155639,98.7082569 L81.2759032,98.7082569 C80.9055011,97.2330275 79.7942948,96.6825688 78.770242,96.6825688 Z" id="Avenir-Cond-Copy" fill="#454D61"></path>
                </g>
            </g>
        </g>
    </g>
</svg>
