<?xml version="1.0" encoding="UTF-8" standalone="no"?>
<svg width="16px" height="16px" viewBox="0 0 16 16" version="1.1" xmlns="http://www.w3.org/2000/svg" xmlns:xlink="http://www.w3.org/1999/xlink">
    <title>7ACDAF42-255A-4CFC-B8B5-D6C2A35C08F4</title>
    <defs></defs>
    <g id="Icons" stroke="none" stroke-width="1" fill="none" fill-rule="evenodd">
        <g transform="translate(-135.000000, -1244.000000)" id="Icon/Schedule">
            <g transform="translate(135.000000, 1244.000000)">
                <g id="Group">
                    <g>
                        <path d="M6,7.33333333 L4.66666667,7.33333333 L4.66666667,8.66666667 L6,8.66666667 L6,7.33333333 Z M8.66666667,7.33333333 L7.33333333,7.33333333 L7.33333333,8.66666667 L8.66666667,8.66666667 L8.66666667,7.33333333 Z M11.3333333,7.33333333 L10,7.33333333 L10,8.66666667 L11.3333333,8.66666667 L11.3333333,7.33333333 Z M12.6666667,2.66666667 L12,2.66666667 L12,1.33333333 L10.6666667,1.33333333 L10.6666667,2.66666667 L5.33333333,2.66666667 L5.33333333,1.33333333 L4,1.33333333 L4,2.66666667 L3.33333333,2.66666667 C2.59333333,2.66666667 2.00666667,3.26666667 2.00666667,4 L2,13.3333333 C2,14.0666667 2.59333333,14.6666667 3.33333333,14.6666667 L12.6666667,14.6666667 C13.4,14.6666667 14,14.0666667 14,13.3333333 L14,4 C14,3.26666667 13.4,2.66666667 12.6666667,2.66666667 Z M12.6666667,13.3333333 L3.33333333,13.3333333 L3.33333333,6 L12.6666667,6 L12.6666667,13.3333333 Z" id="Shape" fill="#6b7282"></path>
                        <polygon id="Shape" points="0 0 16 0 16 16 0 16"></polygon>
                    </g>
                </g>
            </g>
        </g>
    </g>
</svg>