<svg width="40" height="40" viewBox="0 0 40 40" fill="none" xmlns="http://www.w3.org/2000/svg">
<path d="M36.4884 29.8833V21.9781C36.4884 20.5388 35.3215 19.3719 33.882 19.3719H20.8497V10.5988C23.0346 10.1529 24.5269 8.12521 24.3028 5.90679C24.0787 3.68838 22.211 2 19.981 2C17.7511 2 15.8834 3.68838 15.6593 5.90679C15.4352 8.12521 16.9275 10.1529 19.1124 10.5988V19.3719H6.08124C4.64173 19.3719 3.47478 20.5388 3.47478 21.9781V29.8833C1.29005 30.3294 -0.201967 32.3572 0.0222666 34.5755C0.2465 36.7938 2.11414 38.4821 4.34397 38.4821C6.5738 38.4821 8.44144 36.7938 8.66568 34.5755C8.88991 32.3572 7.39789 30.3294 5.21316 29.8833V21.9781C5.21316 21.4986 5.60169 21.109 6.08124 21.109H19.1135V29.8833C16.9286 30.3292 15.4363 32.3569 15.6604 34.5753C15.8845 36.7937 17.7522 38.4821 19.9822 38.4821C22.2121 38.4821 24.0798 36.7937 24.3039 34.5753C24.528 32.3569 23.0357 30.3292 20.8508 29.8833V21.109H33.882C34.3615 21.109 34.75 21.4975 34.75 21.9781V29.8833C32.5653 30.3294 31.0733 32.3572 31.2975 34.5755C31.5218 36.7938 33.3894 38.4821 35.6192 38.4821C37.8491 38.4821 39.7167 36.7938 39.9409 34.5755C40.1652 32.3572 38.6731 30.3294 36.4884 29.8833ZM17.3751 6.34212C17.3751 5.41102 17.8719 4.55065 18.6784 4.0851C19.4848 3.61955 20.4784 3.61955 21.2848 4.0851C22.0913 4.55065 22.5881 5.41102 22.5881 6.34212C22.5881 7.78148 21.4211 8.94831 19.9816 8.94831C18.5421 8.94831 17.3751 7.78148 17.3751 6.34212ZM6.95043 34.14C6.95043 35.0711 6.45364 35.9314 5.6472 36.397C4.84076 36.8625 3.84718 36.8625 3.04074 36.397C2.2343 35.9314 1.73752 35.0711 1.73752 34.14C1.73752 32.7006 2.90447 31.5338 4.34397 31.5338C5.78348 31.5338 6.95043 32.7006 6.95043 34.14ZM22.5881 34.14C22.5881 35.0711 22.0913 35.9314 21.2848 36.397C20.4784 36.8625 19.4848 36.8625 18.6784 36.397C17.8719 35.9314 17.3751 35.0711 17.3751 34.14C17.3751 32.7006 18.5421 31.5338 19.9816 31.5338C21.4211 31.5338 22.5881 32.7006 22.5881 34.14ZM35.6192 36.745C34.6754 36.7645 33.7948 36.2722 33.3172 35.458C32.8396 34.6438 32.8396 33.635 33.3172 32.8208C33.7948 32.0066 34.6754 31.5143 35.6192 31.5338C37.0375 31.563 38.1719 32.721 38.1719 34.1394C38.1719 35.5578 37.0375 36.7158 35.6192 36.745Z" fill="#334151"/>
<path d="M6.89005 34.1387C6.90955 35.0868 6.41654 35.9714 5.60121 36.4512C4.78587 36.931 3.77568 36.931 2.96034 36.4512C2.14501 35.9714 1.652 35.0868 1.6715 34.1387C1.6715 32.6926 2.83996 31.5203 4.28133 31.5203C5.7227 31.5203 6.89116 32.6926 6.89116 34.1387H6.89005ZM22.549 34.1387C22.549 35.0741 22.0516 35.9385 21.2441 36.4062C20.4366 36.874 19.4418 36.874 18.6343 36.4062C17.8268 35.9385 17.3294 35.0741 17.3294 34.1387C17.3294 32.6926 18.4978 31.5203 19.9392 31.5203C21.3806 31.5203 22.549 32.6926 22.549 34.1387ZM35.597 36.7559C34.652 36.7755 33.7703 36.2809 33.292 35.4629C32.8138 34.6449 32.8138 33.6314 33.292 32.8134C33.7703 31.9954 34.652 31.5008 35.597 31.5203C37.0171 31.5497 38.153 32.7131 38.153 34.1381C38.153 35.5631 37.0171 36.7265 35.597 36.7559Z" fill="#FFE3B9"/>
</svg>
