<svg xmlns="http://www.w3.org/2000/svg" width="40" height="40" viewBox="0 0 40 40">
    <g fill="none" fill-rule="evenodd">
        <path d="M0 0h40v40H0z"/>
        <g fill-rule="nonzero">
            <path fill="#FFE3B9" d="M21.12 6.32l-.014.001a3.583 3.583 0 0 1-2.852 5.758A3.595 3.595 0 1 0 21.12 6.32z"/>
            <path fill="#334151" d="M34.738 36.988l-10.32-23.284a5.003 5.003 0 0 0-2.578-8.752V2.72a.72.72 0 0 0-1.44 0v2.232a5.003 5.003 0 0 0-2.578 8.75l-5.508 12.43A13.65 13.65 0 0 1 7.44 15.68a.72.72 0 0 0-1.44 0 15.09 15.09 0 0 0 5.71 11.814l-4.208 9.494a.719.719 0 1 0 1.316.584l4.085-9.217a15.043 15.043 0 0 0 16.369.047.683.683 0 0 0 .06-.057l4.09 9.227a.72.72 0 0 0 1.316-.584zM17.52 9.92a3.6 3.6 0 1 1 7.2 0 3.6 3.6 0 0 1-7.2 0zm10.973 17.27a13.631 13.631 0 0 1-15.002-.16L19.044 14.5a4.934 4.934 0 0 0 4.152 0l5.578 12.585a.715.715 0 0 0-.281.104z"/>
        </g>
    </g>
</svg>
