<svg xmlns="http://www.w3.org/2000/svg" width="40" height="40" viewBox="0 0 40 40">
    <g fill="none" fill-rule="nonzero">
        <path fill="#FFE3B9" d="M22.994 3.725c7.44 3.63 11.05 12.203 8.446 20.061-2.604 7.859-10.618 12.58-18.754 11.049a16.546 16.546 0 1 0 10.308-31.11z"/>
        <path fill="#334151" d="M20 2C10.059 2 2 10.059 2 20s8.059 18 18 18 18-8.059 18-18A18 18 0 0 0 20 2zm9.24 4.264c-1.245 1.851-.342 4.932 1.051 6.325.525.525.52 3.286-.273 5.927a3.168 3.168 0 0 1-6.12-.323c-.192-.972-1.222-5.895-2.67-7.342-.975-.975-2.433-.525-3.844-.09-1.59.492-2.682.762-3.355.09-1.442-1.441-1.312-4.134-1.248-5.429.006-.127.007-.208.01-.309a16.452 16.452 0 0 1 16.449 1.15v.001zM3.44 20a16.548 16.548 0 0 1 7.878-14.075c-.056 1.624.014 4.265 1.693 5.944 1.335 1.335 3.254.743 4.797.268 1.003-.31 2.04-.63 2.403-.268a17.765 17.765 0 0 1 2.274 6.602 4.608 4.608 0 0 0 8.911.46c.676-2.248 1.21-6.063-.087-7.36a4.852 4.852 0 0 1-1.172-2.469 2.92 2.92 0 0 1 .248-1.982c6.457 5.173 8.076 14.332 3.785 21.405a4.32 4.32 0 0 0-4.09-3.485c-1.678 0-2.953 1.801-4.188 3.544-.974 1.376-2.08 2.936-3.012 2.936-1.378 0-3.061-1.53-3.613-4.454-.775-4.112-2.745-5.573-6.593-4.895-3.46.614-4.589 6.386-4.847 9.018A16.477 16.477 0 0 1 3.44 20zM20 36.56c-3.99 0-7.846-1.45-10.849-4.078a.709.709 0 0 0 .049-.242c0-2.2 1.145-8.194 3.726-8.651 3.049-.543 4.297.403 4.927 3.745.623 3.312 2.691 5.626 5.027 5.626 1.678 0 2.953-1.801 4.188-3.544.974-1.376 2.08-2.936 3.012-2.936 2.391 0 2.88 2.84 2.88 3.6a.691.691 0 0 0 .032.157A16.526 16.526 0 0 1 20 36.56z"/>
    </g>
</svg>
