<svg width="40" height="40" viewBox="0 0 40 40" fill="none" xmlns="http://www.w3.org/2000/svg">
<path d="M19.9187 26.0163C23.2863 26.0163 26.0163 23.2863 26.0163 19.9187C26.0163 16.5511 23.2863 13.8212 19.9187 13.8212C16.5511 13.8212 13.8211 16.5511 13.8211 19.9187C13.8211 23.2863 16.5511 26.0163 19.9187 26.0163Z" fill="#FFE3B9"/>
<path d="M9.56598 0.000557792H0.870546C0.390065 0.000557792 0.000557792 0.390065 0.000557792 0.870546V9.56598C-0.0108132 9.88401 0.152368 10.1829 0.426052 10.3453C0.699735 10.5077 1.04024 10.5077 1.31393 10.3453C1.58761 10.1829 1.75079 9.88401 1.73942 9.56598V1.73942H9.56709C9.88512 1.75079 10.184 1.58761 10.3464 1.31393C10.5088 1.04024 10.5088 0.699735 10.3464 0.426052C10.184 0.152368 9.88512 -0.0108132 9.56709 0.000557792H9.56598ZM39.13 0.000557792H30.4346C29.9665 0.0172938 29.5957 0.401607 29.5957 0.86999C29.5957 1.33837 29.9665 1.72269 30.4346 1.73942H38.2611V9.56709C38.2779 10.0352 38.6622 10.406 39.1306 10.406C39.599 10.406 39.9833 10.0352 40 9.56709V0.870546C40 0.639811 39.9083 0.418526 39.7452 0.255371C39.582 0.092217 39.3608 0.000557792 39.13 0.000557792ZM9.56598 38.2611H1.73942V30.4335C1.72269 29.9654 1.33837 29.5946 0.86999 29.5946C0.401607 29.5946 0.0172938 29.9654 0.000557792 30.4335V39.1289C0.000557792 39.61 0.389441 39.9989 0.870546 39.9989H9.56598C9.88401 40.0103 10.1829 39.8471 10.3453 39.5734C10.5077 39.2997 10.5077 38.9592 10.3453 38.6855C10.1829 38.4118 9.88401 38.2487 9.56598 38.26V38.2611ZM39.13 29.5657C38.6504 29.5663 38.2617 29.955 38.2611 30.4346V38.2611H30.4335C29.9654 38.2779 29.5946 38.6622 29.5946 39.1306C29.5946 39.599 29.9654 39.9833 30.4335 40H39.1289C39.61 40 39.9989 39.6111 39.9989 39.13V30.4346C39.9983 29.9545 39.609 29.5657 39.1289 29.5657H39.13ZM20.0003 12.1748C15.6784 12.1748 12.1748 15.6784 12.1748 20.0003C12.1748 24.3222 15.6784 27.8257 20.0003 27.8257C24.3222 27.8257 27.8257 24.3222 27.8257 20.0003C27.8257 15.6784 24.3222 12.1748 20.0003 12.1748ZM20.0003 26.0869C16.6388 26.0869 13.9137 23.3618 13.9137 20.0003C13.9137 16.6388 16.6388 13.9137 20.0003 13.9137C23.3618 13.9137 26.0869 16.6388 26.0869 20.0003C26.0826 23.36 23.36 26.0826 20.0003 26.0869Z" fill="#334151"/>
</svg>
