<svg xmlns="http://www.w3.org/2000/svg" width="40" height="40" viewBox="0 0 40 40">
    <g fill="none" fill-rule="nonzero" transform="translate(2 2)">
        <circle cx="18" cy="18" r="5.478" fill="#FFE3B9"/>
        <path fill="#334151" d="M8.609 0H.783A.783.783 0 0 0 0 .783v7.826a.783.783 0 1 0 1.565 0V1.565H8.61a.783.783 0 1 0 0-1.565zM35.217 0h-7.826a.783.783 0 0 0 0 1.565h7.044V8.61a.783.783 0 0 0 1.565 0V.783A.783.783 0 0 0 35.217 0zM8.609 34.435H1.565V27.39a.783.783 0 0 0-1.565 0v7.826c0 .433.35.783.783.783h7.826a.783.783 0 1 0 0-1.565zM35.217 26.609a.783.783 0 0 0-.782.782v7.044H27.39a.783.783 0 0 0 0 1.565h7.826c.433 0 .783-.35.783-.783v-7.826a.783.783 0 0 0-.783-.782zM18 10.957a7.043 7.043 0 1 0 0 14.086 7.043 7.043 0 0 0 0-14.086zm0 12.521A5.478 5.478 0 1 1 23.478 18 5.485 5.485 0 0 1 18 23.478z"/>
    </g>
</svg>
