<svg width="40" height="40" viewBox="0 0 40 40" fill="none" xmlns="http://www.w3.org/2000/svg">
<path d="M38.5 24H24.0714C24.032 24 24 24.032 24 24.0714V38.5C24 38.5395 24.032 38.5714 24.0714 38.5714H38.5C38.5395 38.5714 38.5714 38.5395 38.5714 38.5V24.0714C38.5714 24.032 38.5395 24 38.5 24Z" fill="#FFE3B9"/>
<path d="M1.40476 1.33337H15.9286C15.968 1.33337 16 1.36535 16 1.4048V15.9286C16 15.9681 15.968 16 15.9286 16H1.40476C1.36531 16 1.33333 15.9681 1.33333 15.9286V1.4048C1.33333 1.36535 1.36531 1.33337 1.40476 1.33337Z" fill="#FFE3B9"/>
<path d="M14.7333 0H2.6C1.91044 0 1.24912 0.273928 0.761522 0.761522C0.273928 1.24912 0 1.91044 0 2.6V14.7333C0 15.4229 0.273928 16.0842 0.761522 16.5718C1.24912 17.0594 1.91044 17.3333 2.6 17.3333H14.7333C15.4229 17.3333 16.0842 17.0594 16.5718 16.5718C17.0594 16.0842 17.3333 15.4229 17.3333 14.7333V2.6C17.3333 1.91044 17.0594 1.24912 16.5718 0.761522C16.0842 0.273928 15.4229 0 14.7333 0ZM15.6 14.7333C15.6 15.212 15.212 15.6 14.7333 15.6H2.6C2.12135 15.6 1.73333 15.212 1.73333 14.7333V2.6C1.73333 2.12135 2.12135 1.73333 2.6 1.73333H14.7333C15.212 1.73333 15.6 2.12135 15.6 2.6V14.7333ZM37.4 0H25.2667C24.5771 0 23.9158 0.273928 23.4282 0.761522C22.9406 1.24912 22.6667 1.91044 22.6667 2.6V14.7333C22.6667 15.4229 22.9406 16.0842 23.4282 16.5718C23.9158 17.0594 24.5771 17.3333 25.2667 17.3333H37.4C38.8359 17.3333 40 16.1693 40 14.7333V2.6C40 1.91044 39.7261 1.24912 39.2385 0.761522C38.7509 0.273928 38.0896 0 37.4 0ZM38.2667 14.7333C38.2667 15.212 37.8786 15.6 37.4 15.6H25.2667C24.788 15.6 24.4 15.212 24.4 14.7333V2.6C24.4 2.12135 24.788 1.73333 25.2667 1.73333H37.4C37.8786 1.73333 38.2667 2.12135 38.2667 2.6V14.7333ZM14.7333 22.6667H2.6C1.91044 22.6667 1.24912 22.9406 0.761522 23.4282C0.273928 23.9158 0 24.5771 0 25.2667V37.4C0 38.8359 1.16406 40 2.6 40H14.7333C15.4229 40 16.0842 39.7261 16.5718 39.2385C17.0594 38.7509 17.3333 38.0896 17.3333 37.4V25.2667C17.3333 24.5771 17.0594 23.9158 16.5718 23.4282C16.0842 22.9406 15.4229 22.6667 14.7333 22.6667ZM15.6 37.4C15.6 37.8786 15.212 38.2667 14.7333 38.2667H2.6C2.12135 38.2667 1.73333 37.8786 1.73333 37.4V25.2667C1.73333 24.788 2.12135 24.4 2.6 24.4H14.7333C15.212 24.4 15.6 24.788 15.6 25.2667V37.4ZM37.4 22.6667H25.2667C24.5771 22.6667 23.9158 22.9406 23.4282 23.4282C22.9406 23.9158 22.6667 24.5771 22.6667 25.2667V37.4C22.6667 38.8359 23.8307 40 25.2667 40H37.4C38.8359 40 40 38.8359 40 37.4V25.2667C40 24.5771 39.7261 23.9158 39.2385 23.4282C38.7509 22.9406 38.0896 22.6667 37.4 22.6667ZM38.2667 37.4C38.2667 37.8786 37.8786 38.2667 37.4 38.2667H25.2667C24.788 38.2667 24.4 37.8786 24.4 37.4V25.2667C24.4 24.788 24.788 24.4 25.2667 24.4H37.4C37.8786 24.4 38.2667 24.788 38.2667 25.2667V37.4Z" fill="#334151"/>
</svg>
