<svg xmlns="http://www.w3.org/2000/svg" width="40" height="40" viewBox="0 0 40 40">
    <g fill="none" fill-rule="nonzero" transform="translate(5 5)">
        <rect width="10" height="10" x="18" y="18" fill="#FFE3B9" rx=".5"/>
        <rect width="10" height="10" x="1" y="1" fill="#FFE3B9" rx=".5"/>
        <path fill="#334151" d="M11.05 0h-9.1A1.95 1.95 0 0 0 0 1.95v9.1A1.95 1.95 0 0 0 1.95 13h9.1A1.95 1.95 0 0 0 13 11.05v-9.1A1.95 1.95 0 0 0 11.05 0zm.65 11.05a.65.65 0 0 1-.65.65h-9.1a.65.65 0 0 1-.65-.65v-9.1a.65.65 0 0 1 .65-.65h9.1a.65.65 0 0 1 .65.65v9.1zM28.05 0h-9.1A1.95 1.95 0 0 0 17 1.95v9.1A1.95 1.95 0 0 0 18.95 13h9.1A1.95 1.95 0 0 0 30 11.05v-9.1A1.95 1.95 0 0 0 28.05 0zm.65 11.05a.65.65 0 0 1-.65.65h-9.1a.65.65 0 0 1-.65-.65v-9.1a.65.65 0 0 1 .65-.65h9.1a.65.65 0 0 1 .65.65v9.1zM11.05 17h-9.1A1.95 1.95 0 0 0 0 18.95v9.1A1.95 1.95 0 0 0 1.95 30h9.1A1.95 1.95 0 0 0 13 28.05v-9.1A1.95 1.95 0 0 0 11.05 17zm.65 11.05a.65.65 0 0 1-.65.65h-9.1a.65.65 0 0 1-.65-.65v-9.1a.65.65 0 0 1 .65-.65h9.1a.65.65 0 0 1 .65.65v9.1zM28.05 17h-9.1A1.95 1.95 0 0 0 17 18.95v9.1A1.95 1.95 0 0 0 18.95 30h9.1A1.95 1.95 0 0 0 30 28.05v-9.1A1.95 1.95 0 0 0 28.05 17zm.65 11.05a.65.65 0 0 1-.65.65h-9.1a.65.65 0 0 1-.65-.65v-9.1a.65.65 0 0 1 .65-.65h9.1a.65.65 0 0 1 .65.65v9.1z"/>
    </g>
</svg>
