<svg xmlns="http://www.w3.org/2000/svg" width="64" height="64" viewBox="0 0 64 64">
    <g fill="none" fill-rule="evenodd">
        <path d="M0 0h64v64H0z"/>
        <g fill-rule="nonzero">
            <path fill="#FFCAC9" d="M18.909 17.727h26.182v4.364H18.909zM21.091 30.818h6.545v15.273h-6.545zM36.364 30.818h6.545v10.909h-6.545z"/>
            <path fill="#334151" d="M52.727 9H11.273A3.273 3.273 0 0 0 8 12.273v39.272a3.273 3.273 0 0 0 3.273 3.273h41.454A3.273 3.273 0 0 0 56 51.545V12.273A3.273 3.273 0 0 0 52.727 9zm1.091 42.545a1.09 1.09 0 0 1-1.09 1.091H11.272a1.09 1.09 0 0 1-1.091-1.09V12.272c0-.603.488-1.091 1.09-1.091h41.455c.603 0 1.091.488 1.091 1.09v39.273z"/>
            <path fill="#334151" d="M16.727 24.273h30.546v-8.728H16.727v8.728zm2.182-6.546h26.182v4.364H18.909v-4.364zM18.91 48.273h10.908V28.636H18.91v19.637zm2.18-17.455h6.546v15.273h-6.545V30.818zM34.182 43.91H45.09V28.635H34.18V43.91zm2.182-13.092h6.545v10.91h-6.545v-10.91z"/>
        </g>
    </g>
</svg>
