<svg xmlns="http://www.w3.org/2000/svg" width="40" height="40" style="background:#fff" viewBox="0 0 40 40">
    <g fill="none" fill-rule="nonzero" transform="translate(4 2)">
        <rect width="2.88" height="9.36" x="1.44" y="25.2" fill="#FFE3B9" rx=".5"/>
        <path fill="#FFE3B9" d="M25.92 10.08v23.76a.72.72 0 0 1-.72.72h-1.44a.721.721 0 0 1-.72-.72V10.08h-5.114l6.55-8.64h.003l6.555 8.64H25.92z"/>
        <path fill="#334151" d="M3.6 23.76H2.16A2.16 2.16 0 0 0 0 25.92v7.92A2.16 2.16 0 0 0 2.16 36H3.6a2.16 2.16 0 0 0 2.16-2.16v-7.92a2.16 2.16 0 0 0-2.16-2.16zm.72 10.08a.72.72 0 0 1-.72.72H2.16a.721.721 0 0 1-.72-.72v-7.92c0-.397.323-.72.72-.72H3.6a.72.72 0 0 1 .72.72v7.92zM13.68 15.84h-1.44A2.16 2.16 0 0 0 10.08 18v15.84A2.16 2.16 0 0 0 12.24 36h1.44a2.16 2.16 0 0 0 2.16-2.16V18a2.16 2.16 0 0 0-2.16-2.16zm.72 18a.72.72 0 0 1-.72.72h-1.44a.721.721 0 0 1-.72-.72V18c0-.397.323-.72.72-.72h1.44a.72.72 0 0 1 .72.72v15.84zM32.993 10.394L25.632.576a1.44 1.44 0 0 0-2.304 0l-7.36 9.818a.72.72 0 0 0 .593 1.126H21.6v22.32A2.16 2.16 0 0 0 23.76 36h1.44a2.16 2.16 0 0 0 2.16-2.16V11.52h5.039a.72.72 0 0 0 .594-1.126zm-7.073-.314v23.76a.72.72 0 0 1-.72.72h-1.44a.721.721 0 0 1-.72-.72V10.08h-5.114l6.55-8.64h.003l6.555 8.64H25.92z"/>
    </g>
</svg>
