<svg xmlns="http://www.w3.org/2000/svg" width="64" height="64" viewBox="0 0 64 64">
    <g fill="none" fill-rule="evenodd">
        <path d="M0 0h64v64H0z"/>
        <g fill-rule="nonzero">
            <path fill="#FFCAC9" d="M11.76 52.24l26.4-26.4 2.934 2.934-24.348 24.492-4.986-1.026"/>
            <path fill="#334151" d="M52.24 17.04A1.76 1.76 0 0 0 54 15.28v-3.52A1.76 1.76 0 0 0 52.24 10h-3.52a1.76 1.76 0 0 0-1.76 1.76v1.76H17.04v-1.76A1.76 1.76 0 0 0 15.28 10h-3.52A1.76 1.76 0 0 0 10 11.76v3.52c0 .972.788 1.76 1.76 1.76h1.76v13.2a.88.88 0 1 0 1.76 0v-13.2a1.76 1.76 0 0 0 1.76-1.76h29.92c0 .972.788 1.76 1.76 1.76v29.92a1.76 1.76 0 0 0-1.76 1.76h-13.2a.88.88 0 1 0 0 1.76h13.2v1.76c0 .972.788 1.76 1.76 1.76h3.52A1.76 1.76 0 0 0 54 52.24v-3.52a1.76 1.76 0 0 0-1.76-1.76h-1.76V17.04h1.76zm-36.96-1.76h-3.52v-3.52h3.52v3.52zm36.96 33.44v3.52h-3.52v-3.52h3.52zm-3.52-33.44v-3.52h3.52v3.52h-3.52z"/>
            <path fill="#334151" d="M40.907 26.826l-3.734-3.732a2.64 2.64 0 0 0-3.733 0L10.773 45.76A2.64 2.64 0 0 0 10 47.627v4.613c0 .972.788 1.76 1.76 1.76h4.613c.7 0 1.372-.278 1.867-.774L40.907 30.56a2.64 2.64 0 0 0 0-3.734zM16.996 51.982a.873.873 0 0 1-.623.258H11.76v-4.613c0-.234.092-.458.258-.623l19.555-19.555 4.978 4.978-19.555 19.555zm22.666-22.667l-1.866 1.868-4.979-4.979 1.867-1.866a.88.88 0 0 1 1.244 0l3.734 3.733a.88.88 0 0 1 0 1.244z"/>
        </g>
    </g>
</svg>
