<svg xmlns="http://www.w3.org/2000/svg" width="64" height="64" viewBox="0 0 64 64">
    <g fill="none" fill-rule="evenodd">
        <path d="M0 0h64v64H0z"/>
        <g fill-rule="nonzero">
            <path fill="#FFCAC9" d="M10.88 50.32a.96.96 0 0 1-.96-.96V19.6H27.2v30.72H10.88z"/>
            <path fill="#334151" d="M54.08 10H9.92A1.922 1.922 0 0 0 8 11.92v37.44a2.883 2.883 0 0 0 2.88 2.88h42.24A2.883 2.883 0 0 0 56 49.36V11.92A1.922 1.922 0 0 0 54.08 10zm-43.2 40.32a.96.96 0 0 1-.96-.96V19.6H27.2v30.72H10.88zm43.2-.96c0 .53-.43.96-.96.96h-24V19.6h24.96v29.76zm0-37.44v5.76H9.92v-5.76h44.16v-.96l.002.96h-.002z"/>
            <path fill="#334151" d="M33.92 42.64h15.36a.96.96 0 1 0 0-1.92H33.92a.96.96 0 1 0 0 1.92zM33.92 34.96h15.36a.96.96 0 1 0 0-1.92H33.92a.96.96 0 1 0 0 1.92zM33.92 27.28h15.36a.96.96 0 1 0 0-1.92H33.92a.96.96 0 1 0 0 1.92z"/>
        </g>
    </g>
</svg>
