<svg width="40" height="40" viewBox="0 0 40 40" fill="none" xmlns="http://www.w3.org/2000/svg">
<path d="M39.6846 34.0515H0.315383C0.141922 34.0515 0 33.9342 0 33.7909V32.5753C0 32.432 0.141922 32.3147 0.315383 32.3147H39.6846C39.8581 32.3147 40 32.432 40 32.5753V33.7909C40 33.9342 39.8581 34.0515 39.6846 34.0515Z" fill="#334151"/>
<path d="M12.344 28.8827C9.97001 28.8827 8.04428 30.8071 8.04428 33.1824C8.04428 35.5563 9.96871 37.4821 12.344 37.4821C14.7179 37.4821 16.6436 35.5576 16.6436 33.1824C16.6436 30.8084 14.7179 28.8827 12.344 28.8827ZM12.344 35.7882C10.9042 35.7882 9.73809 34.6208 9.73809 33.1824C9.73809 32.2508 10.2345 31.3908 11.041 30.9257C11.8475 30.4605 12.8417 30.4605 13.6469 30.9257C14.4534 31.3908 14.9498 32.2521 14.9498 33.1824C14.9498 34.6221 13.7837 35.7882 12.344 35.7882Z" fill="#334151"/>
<path d="M14.9617 33.1858C14.9617 34.1174 14.4653 34.9774 13.6588 35.4425C12.8522 35.9077 11.8581 35.9077 11.0529 35.4425C10.2464 34.9774 9.74997 34.1161 9.74997 33.1858C9.74997 31.7461 10.9174 30.58 12.3558 30.58C13.7943 30.58 14.9617 31.7461 14.9617 33.1858Z" fill="white"/>
<path d="M39.7394 21.1102H0.260586C0.117264 21.1102 0 20.993 0 20.8496V19.634C0 19.4907 0.117264 19.3734 0.260586 19.3734H39.7394C39.8827 19.3734 40 19.4907 40 19.634V20.8496C40 20.993 39.8827 21.1102 39.7394 21.1102Z" fill="#334151"/>
<path d="M28 15.9414C25.6261 15.9414 23.7003 17.8658 23.7003 20.2411C23.7003 22.615 25.6247 24.5408 28 24.5408C30.3739 24.5408 32.2997 22.6163 32.2997 20.2411C32.2997 17.8671 30.3739 15.9414 28 15.9414ZM28 22.847C26.5603 22.847 25.3941 21.6795 25.3941 20.2411C25.3941 19.3095 25.8905 18.4496 26.6971 17.9844C27.5036 17.5193 28.4977 17.5193 29.3029 17.9844C30.1094 18.4496 30.6059 19.3108 30.6059 20.2411C30.6059 21.6808 29.4397 22.847 28 22.847Z" fill="#334151"/>
<path d="M30.6059 20.2411C30.6059 21.1727 30.1094 22.0327 29.3029 22.4978C28.4964 22.963 27.5023 22.963 26.6971 22.4978C25.8906 22.0327 25.3941 21.1714 25.3941 20.2411C25.3941 18.8014 26.5616 17.6353 28 17.6353C29.4384 17.6353 30.6059 18.8014 30.6059 20.2411Z" fill="#FFE3B9"/>
<path d="M39.7394 8.16747H0.398709C0.255386 8.16747 0.138123 8.05021 0.138123 7.90688V6.69125C0.138123 6.54793 0.255386 6.43066 0.398709 6.43066H39.7394C39.8828 6.43066 40 6.54793 40 6.69125V7.90688C40 8.05151 39.8828 8.16747 39.7394 8.16747Z" fill="#334151"/>
<path d="M12.2997 3C9.92443 3 8 4.92443 8 7.29967C8 9.67362 9.92443 11.5993 12.2997 11.5993C14.6736 11.5993 16.5993 9.67492 16.5993 7.29967C16.5993 4.92443 14.6736 3 12.2997 3ZM12.2997 9.90554C10.8599 9.90554 9.69381 8.73811 9.69381 7.29967C9.69381 6.36808 10.1902 5.50814 10.9967 5.043C11.8033 4.57785 12.7974 4.57785 13.6026 5.043C14.4091 5.50814 14.9055 6.36808 14.9055 7.29967C14.9055 8.73811 13.7394 9.90554 12.2997 9.90554Z" fill="#334151"/>
<path d="M14.9055 7.29971C14.9055 8.23131 14.4091 9.09124 13.6026 9.55639C12.7961 10.0215 11.802 10.0215 10.9967 9.55639C10.1902 9.09124 9.69382 8.23 9.69382 7.29971C9.69382 5.85997 10.8612 4.69385 12.2997 4.69385C13.7381 4.69385 14.9055 5.85997 14.9055 7.29971Z" fill="white"/>
</svg>
