<svg xmlns="http://www.w3.org/2000/svg" width="40" height="40" viewBox="0 0 40 40">
    <g fill="none" fill-rule="evenodd">
        <path fill="#334151" fill-rule="nonzero" d="M35.87 28.122V21a2.348 2.348 0 0 0-2.348-2.348h-11.74v-7.904a3.913 3.913 0 1 0-1.565 0v7.904H8.478A2.348 2.348 0 0 0 6.13 21v7.122a3.913 3.913 0 1 0 1.566 0V21c0-.432.35-.783.782-.783h11.74v7.905a3.913 3.913 0 1 0 1.565 0v-7.905h11.739c.432 0 .782.35.782.783v7.122a3.913 3.913 0 1 0 1.566 0zM18.652 6.913a2.348 2.348 0 1 1 4.696 0 2.348 2.348 0 0 1-4.696 0zM9.261 31.957a2.348 2.348 0 1 1-4.696 0 2.348 2.348 0 0 1 4.696 0zm14.087 0a2.348 2.348 0 1 1-4.696 0 2.348 2.348 0 0 1 4.696 0zm11.739 2.347a2.348 2.348 0 1 1 0-4.695 2.348 2.348 0 0 1 0 4.695z"/>
        <path fill="#FFE3B9" d="M9.26 31.957a2.348 2.348 0 1 1-4.695 0 2.348 2.348 0 0 1 4.696 0zM23.348 31.957a2.348 2.348 0 1 1-4.696 0 2.348 2.348 0 0 1 4.696 0zM35.087 34.304a2.348 2.348 0 1 1 0-4.695 2.348 2.348 0 0 1 0 4.695z"/>
    </g>
</svg>
