<svg xmlns="http://www.w3.org/2000/svg" width="64" height="64" viewBox="0 0 64 64">
    <g fill="none" fill-rule="evenodd">
        <path d="M0 0h64v64H0z"/>
        <path fill="#FFCAC9" d="M10.087 49.696V19.435h12.522v31.304H11.13a1.043 1.043 0 0 1-1.043-1.043z"/>
        <path fill="#334151" d="M52.87 9H11.13A3.13 3.13 0 0 0 8 12.13v37.566a3.13 3.13 0 0 0 3.13 3.13h41.74a3.13 3.13 0 0 0 3.13-3.13V12.13A3.13 3.13 0 0 0 52.87 9zm-41.74 2.087h41.74c.576 0 1.043.467 1.043 1.043v5.218H10.087V12.13c0-.576.467-1.043 1.043-1.043zm-1.043 38.609V19.435h12.522v31.304H11.13a1.043 1.043 0 0 1-1.043-1.043zm42.783 1.043H24.696V19.435h29.217v30.26c0 .577-.467 1.044-1.043 1.044z"/>
    </g>
</svg>
