<?xml version="1.0" encoding="UTF-8"?>
<svg width="16px" height="16px" viewBox="0 0 16 16" version="1.1" xmlns="http://www.w3.org/2000/svg" xmlns:xlink="http://www.w3.org/1999/xlink">
    <!-- Generator: Sketch 64 (93537) - https://sketch.com -->
    <title>Icon/radioBlank</title>
    <desc>Created with Sketch.</desc>
    <g id="Iconsheet" stroke="none" stroke-width="1" fill="none" fill-rule="evenodd">
        <g id="Iconfont" transform="translate(-1047.000000, -991.000000)">
            <g id="Icon/radioBlank" transform="translate(1047.000000, 991.000000)">
                <g id="radioBlank">
                    <rect id="Rectangle-4" x="0" y="0" width="16" height="16"></rect>
                    <path d="M8,13 C10.7614237,13 13,10.7614237 13,8 C13,5.23857625 10.7614237,3 8,3 C5.23857625,3 3,5.23857625 3,8 C3,10.7614237 5.23857625,13 8,13 Z M8,14 C4.6862915,14 2,11.3137085 2,8 C2,4.6862915 4.6862915,2 8,2 C11.3137085,2 14,4.6862915 14,8 C14,11.3137085 11.3137085,14 8,14 Z" id="Oval" fill="#1D273B"></path>
                    <circle id="Oval-2" fill="#FFFFFF" cx="8" cy="8" r="5"></circle>
                </g>
            </g>
        </g>
    </g>
</svg>